<?xml version="1.0" standalone="no"?>
<!DOCTYPE svg PUBLIC "-//W3C//DTD SVG 20010904//EN"
 "http://www.w3.org/TR/2001/REC-SVG-20010904/DTD/svg10.dtd">
<svg version="1.0" xmlns="http://www.w3.org/2000/svg"
 width="347.000000pt" height="83.000000pt" viewBox="0 0 347.000000 83.000000"
 preserveAspectRatio="xMidYMid meet">
<metadata>
Created by potrace 1.16, written by Peter Selinger 2001-2019
</metadata>
<g transform="translate(0.000000,83.000000) scale(0.100000,-0.100000)"
fill="#000000" stroke="none">
<path d="M370 750 l0 -70 -65 0 -65 0 2 -187 c1 -146 3 -171 8 -113 4 41 8
121 9 178 l1 102 65 0 65 0 0 75 0 76 78 -3 77 -3 3 -192 c1 -106 5 -193 8
-193 2 0 31 14 64 30 l60 30 90 -45 90 -45 0 -45 c0 -25 5 -45 10 -45 6 0 10
16 10 35 0 36 9 42 39 26 9 -5 23 -6 29 -2 9 5 -1 14 -28 26 -38 17 -40 20
-40 62 0 23 -4 43 -10 43 -5 0 -10 -16 -10 -35 0 -19 -2 -35 -4 -35 -2 0 -42
18 -90 40 l-87 40 -49 -25 c-27 -14 -54 -25 -60 -25 -6 0 -10 64 -10 185 l0
185 -95 0 -95 0 0 -70z"/>
<path d="M1230 520 c-24 -24 -27 -86 -4 -118 12 -17 25 -22 58 -22 47 0 61 10
71 53 9 33 0 70 -21 91 -22 23 -80 20 -104 -4z"/>
<path d="M1840 460 c0 -73 2 -80 20 -80 16 0 20 7 20 30 0 26 4 30 26 30 19 0
28 -7 37 -30 6 -16 17 -30 24 -30 15 0 18 46 4 54 -5 4 -4 19 2 36 18 49 2 64
-72 68 l-61 3 0 -81z"/>
<path d="M2530 520 c-24 -24 -27 -86 -4 -118 12 -17 25 -22 58 -22 47 0 61 10
71 53 9 33 0 70 -21 91 -22 23 -80 20 -104 -4z"/>
<path d="M335 289 c-62 -9 -199 -52 -225 -70 -12 -8 -10 -9 10 -5 90 19 181
27 238 21 81 -9 65 -20 -39 -28 -42 -4 -87 -11 -100 -17 -21 -9 -20 -10 11 -5
84 13 234 27 258 23 26 -4 27 -2 27 44 l0 48 -60 -1 c-33 -1 -87 -5 -120 -10z"/>
</g>
</svg>
